P1
# Solution to day 8 of AOC 2019
25 6
0 0 1 1 0 1 0 0 0 1 1 1 1 1 0 1 0 0 1 0 1 1 1 1 0 
0 0 0 1 0 1 0 0 0 1 0 0 0 1 0 1 0 0 1 0 1 0 0 0 0 
0 0 0 1 0 0 1 0 1 0 0 0 1 0 0 1 1 1 1 0 1 1 1 0 0 
0 0 0 1 0 0 0 1 0 0 0 1 0 0 0 1 0 0 1 0 1 0 0 0 0 
1 0 0 1 0 0 0 1 0 0 1 0 0 0 0 1 0 0 1 0 1 0 0 0 0 
0 1 1 0 0 0 0 1 0 0 1 1 1 1 0 1 0 0 1 0 1 0 0 0 0 
